<svg width="62" height="62" viewBox="0 0 62 62" fill="none" xmlns="http://www.w3.org/2000/svg">
<g filter="url(#filter0_d_83_6)">
<circle cx="30.755" cy="26.507" r="26.507" fill="#07518E"/>
</g>
<g clip-path="url(#clip0_83_6)">
<path d="M30.9294 46.2997C25.547 46.2997 20.3851 44.1776 16.5791 40.4003C12.7732 36.623 10.635 31.4998 10.635 26.1579C10.635 20.8159 12.7732 15.6928 16.5791 11.9155C20.3851 8.13815 25.547 6.01607 30.9294 6.01607C36.3118 6.01607 41.4738 8.13815 45.2797 11.9155C49.0857 15.6928 51.2238 20.8159 51.2238 26.1579C51.2238 31.4998 49.0857 36.623 45.2797 40.4003C41.4738 44.1776 36.3118 46.2997 30.9294 46.2997ZM30.9294 49.1771C37.0808 49.1771 42.9801 46.7519 47.3298 42.4349C51.6794 38.118 54.123 32.263 54.123 26.1579C54.123 20.0528 51.6794 14.1978 47.3298 9.88084C42.9801 5.5639 37.0808 3.13867 30.9294 3.13867C24.7781 3.13867 18.8787 5.5639 14.5291 9.88084C10.1794 14.1978 7.73584 20.0528 7.73584 26.1579C7.73584 32.263 10.1794 38.118 14.5291 42.4349C18.8787 46.7519 24.7781 49.1771 30.9294 49.1771Z" fill="white"/>
<path d="M40.5403 31.953C40.8155 31.8887 41.1037 31.9057 41.3693 32.0018C41.6349 32.098 41.8664 32.2691 42.0353 32.4942C42.2041 32.7193 42.3029 32.9884 42.3196 33.2686C42.3363 33.5487 42.2701 33.8275 42.1291 34.0708C40.9838 36.0395 39.3365 37.6743 37.3527 38.8108C35.3689 39.9473 33.1186 40.5454 30.828 40.5449C28.5375 40.5454 26.2872 39.9473 24.3034 38.8108C22.3196 37.6743 20.6722 36.0395 19.5269 34.0708C19.386 33.8275 19.3197 33.5487 19.3364 33.2686C19.3531 32.9884 19.4519 32.7193 19.6208 32.4942C19.7896 32.2691 20.0211 32.098 20.2867 32.0018C20.5523 31.9057 20.8405 31.8887 21.1157 31.953H21.1302L21.1795 31.9674L21.3737 32.0105L22.1043 32.1688C22.7276 32.3012 23.5974 32.4796 24.5889 32.6551C26.5981 33.0119 29.0015 33.3514 30.828 33.3514C32.6545 33.3514 35.0608 33.0119 37.0671 32.6551C38.1432 32.4625 39.2152 32.2477 40.2823 32.0105L40.4765 31.9674L40.5258 31.9559L40.5403 31.9501V31.953ZM21.5245 16.2769C23.7366 12.1795 33.1793 15.9316 24.2845 26.1579C11.2497 21.5656 17.4714 13.7908 21.5245 16.2769ZM40.3345 16.2769C44.3876 13.7908 50.6092 21.5656 37.5744 26.1579C28.6826 15.9316 38.1253 12.1795 40.3345 16.2769Z" fill="white"/>
</g>
<defs>
<filter id="filter0_d_83_6" x="0.248047" y="0" width="61.0139" height="61.0142" filterUnits="userSpaceOnUse" color-interpolation-filters="sRGB">
<feFlood flood-opacity="0" result="BackgroundImageFix"/>
<feColorMatrix in="SourceAlpha" type="matrix" values="0 0 0 0 0 0 0 0 0 0 0 0 0 0 0 0 0 0 127 0" result="hardAlpha"/>
<feOffset dy="4"/>
<feGaussianBlur stdDeviation="2"/>
<feComposite in2="hardAlpha" operator="out"/>
<feColorMatrix type="matrix" values="0 0 0 0 0 0 0 0 0 0 0 0 0 0 0 0 0 0 0.25 0"/>
<feBlend mode="normal" in2="BackgroundImageFix" result="effect1_dropShadow_83_6"/>
<feBlend mode="normal" in="SourceGraphic" in2="effect1_dropShadow_83_6" result="shape"/>
</filter>
<clipPath id="clip0_83_6">
<rect width="46.3872" height="46.0384" fill="white" transform="translate(7.73584 3.13867)"/>
</clipPath>
</defs>
</svg>
