<svg width="62" height="62" viewBox="0 0 62 62" fill="none" xmlns="http://www.w3.org/2000/svg">
<path fill-rule="evenodd" clip-rule="evenodd" d="M15.6365 30.9882C15.6365 30.4762 15.8399 29.9852 16.2019 29.6232C16.5639 29.2612 17.0549 29.0578 17.5668 29.0578H39.9322L31.6431 20.7727C31.2807 20.4102 31.077 19.9186 31.077 19.406C31.077 18.8933 31.2807 18.4017 31.6431 18.0393C32.0056 17.6768 32.4972 17.4731 33.0098 17.4731C33.5225 17.4731 34.0141 17.6768 34.3766 18.0393L45.9588 29.6215C46.1386 29.8008 46.2812 30.0138 46.3785 30.2484C46.4758 30.4829 46.5259 30.7343 46.5259 30.9882C46.5259 31.2421 46.4758 31.4935 46.3785 31.7281C46.2812 31.9626 46.1386 32.1756 45.9588 32.3549L34.3766 43.9372C34.0141 44.2996 33.5225 44.5033 33.0098 44.5033C32.4972 44.5033 32.0056 44.2996 31.6431 43.9372C31.2807 43.5747 31.077 43.0831 31.077 42.5705C31.077 42.0578 31.2807 41.5662 31.6431 41.2038L39.9322 32.9186H17.5668C17.0549 32.9186 16.5639 32.7152 16.2019 32.3532C15.8399 31.9912 15.6365 31.5002 15.6365 30.9882Z" fill="#07518E" fill-opacity="0.8"/>
</svg>
