<svg width="24" height="24" viewBox="0 0 24 24" fill="none" xmlns="http://www.w3.org/2000/svg">
<path fill-rule="evenodd" clip-rule="evenodd" d="M0 12C0 11.5454 0.158018 11.1095 0.439291 10.788C0.720564 10.4666 1.10205 10.286 1.49983 10.286H18.8769L12.4366 2.92964C12.155 2.6078 11.9968 2.17129 11.9968 1.71614C11.9968 1.26099 12.155 0.824486 12.4366 0.502647C12.7182 0.180808 13.1002 0 13.4985 0C13.8968 0 14.2787 0.180808 14.5604 0.502647L23.5594 10.7865C23.699 10.9457 23.8099 11.1349 23.8855 11.3431C23.9611 11.5513 24 11.7746 24 12C24 12.2254 23.9611 12.4487 23.8855 12.6569C23.8099 12.8651 23.699 13.0543 23.5594 13.2135L14.5604 23.4974C14.2787 23.8192 13.8968 24 13.4985 24C13.1002 24 12.7182 23.8192 12.4366 23.4974C12.155 23.1755 11.9968 22.739 11.9968 22.2839C11.9968 21.8287 12.155 21.3922 12.4366 21.0704L18.8769 13.714H1.49983C1.10205 13.714 0.720564 13.5334 0.439291 13.212C0.158018 12.8905 0 12.4546 0 12Z" fill="#07518E"/>
</svg>
