<svg width="24" height="24" viewBox="0 0 24 24" fill="none" xmlns="http://www.w3.org/2000/svg">
<path fill-rule="evenodd" clip-rule="evenodd" d="M24 12C24 12.4546 23.842 12.8905 23.5607 13.212C23.2794 13.5334 22.8979 13.714 22.5002 13.714L5.12311 13.714L11.5634 21.0704C11.845 21.3922 12.0032 21.8287 12.0032 22.2839C12.0032 22.739 11.845 23.1755 11.5634 23.4974C11.2818 23.8192 10.8998 24 10.5015 24C10.1032 24 9.72125 23.8192 9.43962 23.4974L0.440629 13.2135C0.300954 13.0543 0.19014 12.8651 0.114529 12.6569C0.0389183 12.4487 -1.30121e-06 12.2254 -1.28961e-06 12C-1.278e-06 11.7746 0.0389184 11.5513 0.114529 11.3431C0.19014 11.1349 0.300955 10.9457 0.440629 10.7865L9.43963 0.502647C9.72125 0.180808 10.1032 1.75151e-06 10.5015 1.81064e-06C10.8998 1.86977e-06 11.2818 0.180809 11.5634 0.502647C11.845 0.824486 12.0032 1.26099 12.0032 1.71614C12.0032 2.17129 11.845 2.6078 11.5634 2.92964L5.12311 10.286L22.5002 10.286C22.8979 10.286 23.2794 10.4666 23.5607 10.788C23.842 11.1095 24 11.5454 24 12Z" fill="#07518E"/>
</svg>
