<svg width="27" height="26" viewBox="0 0 27 26" fill="none" xmlns="http://www.w3.org/2000/svg">
<path d="M0 3.375C0 2.47989 0.355579 1.62145 0.988515 0.988515C1.62145 0.355579 2.47989 0 3.375 0L23.625 0C24.5201 0 25.3785 0.355579 26.0115 0.988515C26.6444 1.62145 27 2.47989 27 3.375V16.875C27 17.7701 26.6444 18.6285 26.0115 19.2615C25.3785 19.8944 24.5201 20.25 23.625 20.25H7.44863C7.00111 20.2501 6.57196 20.4279 6.25556 20.7444L1.44112 25.5589C1.32322 25.6771 1.1729 25.7576 1.00919 25.7904C0.845473 25.8231 0.675728 25.8065 0.521436 25.7428C0.367144 25.679 0.235241 25.5709 0.14242 25.4321C0.0496 25.2933 3.54626e-05 25.1301 0 24.9632L0 3.375ZM8.4375 10.125C8.4375 9.67745 8.25971 9.24823 7.94324 8.93176C7.62677 8.61529 7.19755 8.4375 6.75 8.4375C6.30245 8.4375 5.87322 8.61529 5.55676 8.93176C5.24029 9.24823 5.0625 9.67745 5.0625 10.125C5.0625 10.5726 5.24029 11.0018 5.55676 11.3182C5.87322 11.6347 6.30245 11.8125 6.75 11.8125C7.19755 11.8125 7.62677 11.6347 7.94324 11.3182C8.25971 11.0018 8.4375 10.5726 8.4375 10.125ZM15.1875 10.125C15.1875 9.67745 15.0097 9.24823 14.6932 8.93176C14.3768 8.61529 13.9476 8.4375 13.5 8.4375C13.0524 8.4375 12.6232 8.61529 12.3068 8.93176C11.9903 9.24823 11.8125 9.67745 11.8125 10.125C11.8125 10.5726 11.9903 11.0018 12.3068 11.3182C12.6232 11.6347 13.0524 11.8125 13.5 11.8125C13.9476 11.8125 14.3768 11.6347 14.6932 11.3182C15.0097 11.0018 15.1875 10.5726 15.1875 10.125ZM20.25 11.8125C20.6976 11.8125 21.1268 11.6347 21.4432 11.3182C21.7597 11.0018 21.9375 10.5726 21.9375 10.125C21.9375 9.67745 21.7597 9.24823 21.4432 8.93176C21.1268 8.61529 20.6976 8.4375 20.25 8.4375C19.8024 8.4375 19.3732 8.61529 19.0568 8.93176C18.7403 9.24823 18.5625 9.67745 18.5625 10.125C18.5625 10.5726 18.7403 11.0018 19.0568 11.3182C19.3732 11.6347 19.8024 11.8125 20.25 11.8125Z" fill="#07518E"/>
</svg>
