<svg width="28" height="28" viewBox="0 0 28 28" fill="none" xmlns="http://www.w3.org/2000/svg">
<path d="M8.1306 8.1306C8.21188 8.04911 8.30844 7.98446 8.41474 7.94035C8.52104 7.89624 8.63501 7.87354 8.7501 7.87354C8.86519 7.87354 8.97915 7.89624 9.08546 7.94035C9.19176 7.98446 9.28832 8.04911 9.3696 8.1306L14.0001 12.7628L18.6306 8.1306C18.712 8.04924 18.8085 7.98471 18.9148 7.94068C19.0211 7.89665 19.135 7.87399 19.2501 7.87399C19.3652 7.87399 19.4791 7.89665 19.5854 7.94068C19.6917 7.98471 19.7882 8.04924 19.8696 8.1306C19.951 8.21195 20.0155 8.30853 20.0595 8.41483C20.1035 8.52112 20.1262 8.63505 20.1262 8.7501C20.1262 8.86515 20.1035 8.97908 20.0595 9.08537C20.0155 9.19166 19.951 9.28825 19.8696 9.3696L15.2373 14.0001L19.8696 18.6306C19.951 18.712 20.0155 18.8085 20.0595 18.9148C20.1035 19.0211 20.1262 19.135 20.1262 19.2501C20.1262 19.3652 20.1035 19.4791 20.0595 19.5854C20.0155 19.6917 19.951 19.7882 19.8696 19.8696C19.7882 19.951 19.6917 20.0155 19.5854 20.0595C19.4791 20.1035 19.3652 20.1262 19.2501 20.1262C19.135 20.1262 19.0211 20.1035 18.9148 20.0595C18.8085 20.0155 18.712 19.951 18.6306 19.8696L14.0001 15.2373L9.3696 19.8696C9.28825 19.951 9.19166 20.0155 9.08537 20.0595C8.97908 20.1035 8.86515 20.1262 8.7501 20.1262C8.63505 20.1262 8.52112 20.1035 8.41483 20.0595C8.30853 20.0155 8.21195 19.951 8.1306 19.8696C8.04924 19.7882 7.98471 19.6917 7.94068 19.5854C7.89665 19.4791 7.87399 19.3652 7.87399 19.2501C7.87399 19.135 7.89665 19.0211 7.94068 18.9148C7.98471 18.8085 8.04924 18.712 8.1306 18.6306L12.7628 14.0001L8.1306 9.3696C8.04911 9.28832 7.98446 9.19176 7.94035 9.08546C7.89624 8.97915 7.87354 8.86519 7.87354 8.7501C7.87354 8.63501 7.89624 8.52104 7.94035 8.41474C7.98446 8.30844 8.04911 8.21188 8.1306 8.1306Z" fill="#07518E"/>
</svg>
