<svg width="24" height="24" viewBox="0 0 24 24" fill="none" xmlns="http://www.w3.org/2000/svg">
<path fill-rule="evenodd" clip-rule="evenodd" d="M10.965 12.695C10.979 12.5486 10.9605 12.4009 10.9109 12.2625C10.8613 12.124 10.7818 11.9982 10.678 11.894C9.618 10.83 9 9.468 9 8C9 4.808 12.004 2 16 2C19.996 2 23 4.808 23 8C23 11.192 19.996 14 16 14C15.2951 14.0017 14.593 13.9103 13.912 13.728C13.674 13.6642 13.4208 13.6906 13.201 13.802C12.814 13.998 11.961 14.372 10.567 14.695C10.7613 14.0421 10.8945 13.3726 10.965 12.695ZM10.165 15.803L10.185 15.799C12.015 15.436 13.133 14.957 13.653 14.694C14.4185 14.8989 15.2076 15.0018 16 15C20.418 15 24 11.866 24 8C24 4.134 20.418 1 16 1C11.582 1 8 4.134 8 8C8 9.76 8.743 11.37 9.97 12.6C9.88448 13.3902 9.70866 14.1679 9.446 14.918L9.443 14.929C9.36827 15.1438 9.2869 15.3562 9.199 15.566C9.12 15.752 9.273 15.96 9.472 15.928C9.70365 15.89 9.93468 15.8484 10.165 15.803ZM16 5.993C17.664 4.282 21.825 7.276 16 11.125C10.175 7.275 14.336 4.282 16 5.993Z" fill="#07518E"/>
<g clip-path="url(#clip0_134_6)">
<path fill-rule="evenodd" clip-rule="evenodd" d="M1.88547 8.51115C2.06045 8.33644 2.27055 8.20091 2.50187 8.11354C2.73318 8.02617 2.98043 7.98896 3.22721 8.00437C3.47399 8.01978 3.71469 8.08747 3.93333 8.20293C4.15198 8.3184 4.34359 8.47902 4.49547 8.67415L6.29047 10.9801C6.61947 11.4031 6.73547 11.9541 6.60547 12.4741L6.05847 14.6641C6.03039 14.7776 6.03201 14.8963 6.06319 15.009C6.09437 15.1216 6.15405 15.2243 6.23647 15.3071L8.69347 17.7641C8.77642 17.8467 8.87928 17.9065 8.9921 17.9377C9.10492 17.9689 9.22388 17.9704 9.33747 17.9421L11.5265 17.3951C11.7831 17.3314 12.0509 17.3266 12.3096 17.3811C12.5684 17.4357 12.8114 17.5482 13.0205 17.7101L15.3265 19.5041C16.1555 20.1491 16.2315 21.3741 15.4895 22.1151L14.4555 23.1491C13.7155 23.8891 12.6095 24.2141 11.5785 23.8511C8.93914 22.9237 6.54301 21.4129 4.56847 19.4311C2.58684 17.4569 1.07602 15.0611 0.148471 12.4221C-0.213529 11.3921 0.111471 10.2851 0.851471 9.54515L1.88547 8.51115Z" fill="#07518E"/>
</g>
<defs>
<clipPath id="clip0_134_6">
<rect width="16" height="16" fill="white" transform="translate(0 8)"/>
</clipPath>
</defs>
</svg>
