<svg width="19" height="19" viewBox="0 0 19 19" fill="none" xmlns="http://www.w3.org/2000/svg">
<path d="M9.5 0C8.25244 -1.4877e-08 7.0171 0.245725 5.86451 0.723144C4.71191 1.20056 3.66464 1.90033 2.78249 2.78249C1.90033 3.66464 1.20056 4.71191 0.723144 5.86451C0.245725 7.0171 -3.96555e-08 8.25244 0 9.5C3.96555e-08 10.7476 0.245725 11.9829 0.723145 13.1355C1.20056 14.2881 1.90033 15.3354 2.78249 16.2175C3.66464 17.0997 4.71192 17.7994 5.86451 18.2769C7.0171 18.7543 8.25244 19 9.5 19L9.5 9.5V0Z" fill="#07518E"/>
<path d="M12.9442 17.8149C12.0065 18.2033 11.011 18.4298 10 18.4861L10 9.5L10 0.5139C11.011 0.570152 12.0065 0.796686 12.9442 1.18509C14.0361 1.63738 15.0282 2.30031 15.864 3.13604C16.6997 3.97177 17.3626 4.96392 17.8149 6.05585C18.2672 7.14778 18.5 8.3181 18.5 9.5C18.5 10.6819 18.2672 11.8522 17.8149 12.9442C17.3626 14.0361 16.6997 15.0282 15.864 15.864C15.0282 16.6997 14.0361 17.3626 12.9442 17.8149Z" fill="white" stroke="#07518E"/>
<line x1="9.5" y1="19" x2="9.5" y2="-2.18557e-08" stroke="#07518E"/>
</svg>
