<svg width="27" height="27" viewBox="0 0 27 27" fill="none" xmlns="http://www.w3.org/2000/svg">
<path d="M3.375 3.375C2.61037 3.37495 1.86838 3.63454 1.27056 4.11127C0.672731 4.588 0.254506 5.2536 0.084375 5.99906L13.5 14.1986L26.9156 5.99906C26.7455 5.2536 26.3273 4.588 25.7294 4.11127C25.1316 3.63454 24.3896 3.37495 23.625 3.375H3.375ZM0 19.9125V7.92788L9.79256 13.9118L0 19.9125ZM11.4092 14.9006L0.322313 21.6945C0.595997 22.2724 1.02823 22.7607 1.56868 23.1025C2.10913 23.4443 2.73555 23.6255 3.375 23.625H13.932C13.6454 22.8119 13.4993 21.9559 13.5 21.0938C13.4988 19.9852 13.7409 18.89 14.2092 17.8852C14.6775 16.8804 15.3605 15.9906 16.2101 15.2786L15.5908 14.8989L13.5 16.1764L11.4092 14.9006ZM27 16.3198V7.92619L17.2074 13.9101L17.7778 14.2611C18.8113 13.7599 19.9451 13.4996 21.0938 13.5C23.4799 13.5 25.6078 14.6002 27 16.3198Z" fill="#07518E"/>
<path d="M26.7199 20.6618C26.7199 22.6328 25.7462 24.0789 24.0418 24.0789C23.193 24.0789 22.3509 23.6942 22.1518 22.9854H22.0792C21.8801 23.6874 21.1629 24.0705 20.3664 24.0705C19.0671 24.0705 18.2419 23.1559 18.2419 21.6506V20.7579C18.2419 19.3337 19.0536 18.3954 20.3681 18.3954C21.3553 18.3954 21.8362 18.9574 21.9763 19.4586H22.0269V18.5001H23.5541V22.1957C23.5541 22.6547 23.8579 22.9044 24.2477 22.9044C24.7793 22.9044 25.326 22.2041 25.326 20.5588V20.3597C25.326 18.2047 23.7229 16.4346 21.1342 16.4346H21.0668C18.3971 16.4346 16.6117 18.2351 16.6117 21.0313V21.2962C16.6117 24.4468 18.6992 25.7749 20.9486 25.7749H21.0246C21.8801 25.7749 22.6024 25.6567 23.0158 25.4711V26.7047C22.6462 26.8734 21.9308 27 20.9284 27H20.8541C17.6141 27 15.1875 25.0087 15.1875 21.3401V20.979C15.1875 17.4825 17.5854 15.1875 21.0684 15.1875H21.1275C24.705 15.1875 26.7199 17.6006 26.7199 20.3074V20.6618ZM19.9024 21.0161V21.3992C19.9024 22.3881 20.2854 22.7492 20.8828 22.7492C21.4059 22.7492 21.8346 22.4623 21.8346 21.4954V20.8761C21.8346 20.0053 21.3705 19.6813 20.8693 19.6813C20.2854 19.6813 19.9024 20.0948 19.9024 21.0161Z" fill="#07518E"/>
</svg>
