<svg width="62" height="62" viewBox="0 0 62 62" fill="none" xmlns="http://www.w3.org/2000/svg">
<g filter="url(#filter0_d_83_5)">
<circle cx="30.7538" cy="26.507" r="26.507" fill="#07518E"/>
</g>
<g clip-path="url(#clip0_83_5)">
<path d="M30.4052 46.2997C25.0633 46.2997 19.9401 44.1776 16.1628 40.4003C12.3855 36.623 10.2634 31.4998 10.2634 26.1579C10.2634 20.8159 12.3855 15.6928 16.1628 11.9155C19.9401 8.13815 25.0633 6.01607 30.4052 6.01607C35.7471 6.01607 40.8703 8.13815 44.6476 11.9155C48.4249 15.6928 50.547 20.8159 50.547 26.1579C50.547 31.4998 48.4249 36.623 44.6476 40.4003C40.8703 44.1776 35.7471 46.2997 30.4052 46.2997ZM30.4052 49.1771C36.5103 49.1771 42.3653 46.7519 46.6822 42.4349C50.9992 38.118 53.4244 32.263 53.4244 26.1579C53.4244 20.0528 50.9992 14.1978 46.6822 9.88084C42.3653 5.5639 36.5103 3.13867 30.4052 3.13867C24.3001 3.13867 18.4451 5.5639 14.1282 9.88084C9.81122 14.1978 7.38599 20.0528 7.38599 26.1579C7.38599 32.263 9.81122 38.118 14.1282 42.4349C18.4451 46.7519 24.3001 49.1771 30.4052 49.1771Z" fill="white"/>
<path d="M42.8672 30.4742C43.1198 30.9116 43.2527 31.4078 43.2527 31.9129C43.2527 32.418 43.1198 32.9142 42.8672 33.3516C41.6043 35.5391 39.7877 37.3555 37.6001 38.6182C35.4125 39.881 32.9311 40.5455 30.4052 40.5451C27.8798 40.545 25.3989 39.8802 23.2119 38.6175C21.0249 37.3548 19.2087 35.5386 17.946 33.3516C17.6936 32.9144 17.5607 32.4185 17.5605 31.9136C17.5604 31.4088 17.6931 30.9128 17.9453 30.4755C18.1975 30.0381 18.5603 29.6748 18.9973 29.4221C19.4343 29.1693 19.9302 29.036 20.435 29.0355H40.3754C40.8805 29.0355 41.3766 29.1685 41.814 29.421C42.2515 29.6735 42.6147 30.0368 42.8672 30.4742ZM27.5278 21.842C27.5278 24.2245 26.2387 21.842 24.6504 21.842C23.0621 21.842 21.773 24.2245 21.773 21.842C21.773 19.4595 23.0621 17.5259 24.6504 17.5259C26.2387 17.5259 27.5278 19.4595 27.5278 21.842ZM39.0374 21.842C39.0374 24.2245 37.7483 21.842 36.16 21.842C34.5717 21.842 33.2826 24.2245 33.2826 21.842C33.2826 19.4595 34.5717 17.5259 36.16 17.5259C37.7483 17.5259 39.0374 19.4595 39.0374 21.842Z" fill="white"/>
</g>
<defs>
<filter id="filter0_d_83_5" x="0.246826" y="0" width="61.0139" height="61.0142" filterUnits="userSpaceOnUse" color-interpolation-filters="sRGB">
<feFlood flood-opacity="0" result="BackgroundImageFix"/>
<feColorMatrix in="SourceAlpha" type="matrix" values="0 0 0 0 0 0 0 0 0 0 0 0 0 0 0 0 0 0 127 0" result="hardAlpha"/>
<feOffset dy="4"/>
<feGaussianBlur stdDeviation="2"/>
<feComposite in2="hardAlpha" operator="out"/>
<feColorMatrix type="matrix" values="0 0 0 0 0 0 0 0 0 0 0 0 0 0 0 0 0 0 0.25 0"/>
<feBlend mode="normal" in2="BackgroundImageFix" result="effect1_dropShadow_83_5"/>
<feBlend mode="normal" in="SourceGraphic" in2="effect1_dropShadow_83_5" result="shape"/>
</filter>
<clipPath id="clip0_83_5">
<rect width="46.0384" height="46.0384" fill="white" transform="translate(7.38599 3.13867)"/>
</clipPath>
</defs>
</svg>
