<svg width="62" height="62" viewBox="0 0 62 62" fill="none" xmlns="http://www.w3.org/2000/svg">
<g filter="url(#filter0_d_83_4)">
<circle cx="30.7526" cy="26.9733" r="26.507" fill="#07518E"/>
</g>
<g clip-path="url(#clip0_83_4)">
<path d="M31.1015 46.767C25.7595 46.767 20.6364 44.6449 16.8591 40.8676C13.0818 37.0903 10.9597 31.9671 10.9597 26.6252C10.9597 21.2832 13.0818 16.1601 16.8591 12.3828C20.6364 8.60544 25.7595 6.48336 31.1015 6.48336C36.4434 6.48336 41.5666 8.60544 45.3439 12.3828C49.1212 16.1601 51.2433 21.2832 51.2433 26.6252C51.2433 31.9671 49.1212 37.0903 45.3439 40.8676C41.5666 44.6449 36.4434 46.767 31.1015 46.767ZM31.1015 49.6444C37.2066 49.6444 43.0616 47.2191 47.3785 42.9022C51.6955 38.5853 54.1207 32.7302 54.1207 26.6252C54.1207 20.5201 51.6955 14.6651 47.3785 10.3481C43.0616 6.03119 37.2066 3.60596 31.1015 3.60596C24.9964 3.60596 19.1414 6.03119 14.8244 10.3481C10.5075 14.6651 8.08228 20.5201 8.08228 26.6252C8.08228 32.7302 10.5075 38.5853 14.8244 42.9022C19.1414 47.2191 24.9964 49.6444 31.1015 49.6444Z" fill="white"/>
<path d="M20.4119 31.1343C20.7424 30.9435 21.1351 30.8918 21.5036 30.9905C21.8722 31.0893 22.1864 31.3304 22.3772 31.6608C23.2613 33.1922 24.5331 34.4638 26.0645 35.3477C27.596 36.2316 29.3332 36.6967 31.1015 36.6963C32.8697 36.6967 34.607 36.2316 36.1384 35.3477C37.6699 34.4638 38.9416 33.1922 39.8258 31.6608C39.9195 31.4959 40.045 31.3511 40.195 31.2349C40.3449 31.1186 40.5164 31.0332 40.6995 30.9835C40.8826 30.9338 41.0737 30.9208 41.2619 30.9452C41.45 30.9697 41.6315 31.0311 41.7958 31.126C41.9601 31.2208 42.1041 31.3473 42.2193 31.498C42.3346 31.6487 42.4189 31.8207 42.4674 32.0042C42.5159 32.1876 42.5276 32.3788 42.5019 32.5668C42.4762 32.7548 42.4135 32.9358 42.3176 33.0995C41.1809 35.0683 39.546 36.7031 37.5771 37.8396C35.6082 38.976 33.3748 39.5741 31.1015 39.5737C28.8281 39.5741 26.5948 38.976 24.6259 37.8396C22.657 36.7031 21.022 35.0683 19.8854 33.0995C19.6946 32.7691 19.6429 32.3764 19.7416 32.0078C19.8404 31.6393 20.0815 31.325 20.4119 31.1343ZM28.2241 22.3093C28.2241 24.6918 26.935 26.6254 25.3467 26.6254C23.7584 26.6254 22.4693 24.6918 22.4693 22.3093C22.4693 19.9268 23.7584 17.9932 25.3467 17.9932C26.935 17.9932 28.2241 19.9268 28.2241 22.3093ZM39.7337 22.3093C39.7337 24.6918 38.4446 26.6254 36.8563 26.6254C35.268 26.6254 33.9789 24.6918 33.9789 22.3093C33.9789 19.9268 35.268 17.9932 36.8563 17.9932C38.4446 17.9932 39.7337 19.9268 39.7337 22.3093Z" fill="white"/>
</g>
<defs>
<filter id="filter0_d_83_4" x="0.245605" y="0.466309" width="61.0139" height="61.0142" filterUnits="userSpaceOnUse" color-interpolation-filters="sRGB">
<feFlood flood-opacity="0" result="BackgroundImageFix"/>
<feColorMatrix in="SourceAlpha" type="matrix" values="0 0 0 0 0 0 0 0 0 0 0 0 0 0 0 0 0 0 127 0" result="hardAlpha"/>
<feOffset dy="4"/>
<feGaussianBlur stdDeviation="2"/>
<feComposite in2="hardAlpha" operator="out"/>
<feColorMatrix type="matrix" values="0 0 0 0 0 0 0 0 0 0 0 0 0 0 0 0 0 0 0.25 0"/>
<feBlend mode="normal" in2="BackgroundImageFix" result="effect1_dropShadow_83_4"/>
<feBlend mode="normal" in="SourceGraphic" in2="effect1_dropShadow_83_4" result="shape"/>
</filter>
<clipPath id="clip0_83_4">
<rect width="46.0384" height="46.0384" fill="white" transform="translate(8.08228 3.60596)"/>
</clipPath>
</defs>
</svg>
