<svg width="27" height="27" viewBox="0 0 27 27" fill="none" xmlns="http://www.w3.org/2000/svg">
<g clip-path="url(#clip0_44_524)">
<path fill-rule="evenodd" clip-rule="evenodd" d="M26.6912 0.190389C26.7878 0.269593 26.8656 0.369262 26.919 0.482199C26.9724 0.595137 27.0001 0.718524 27 0.843451V24.4685C26.9999 24.6634 26.9322 24.8524 26.8086 25.0031C26.6849 25.1539 26.5128 25.2571 26.3216 25.2953L17.8841 26.9828C17.775 27.0046 17.6625 27.0046 17.5534 26.9828L9.28125 25.3291L1.00912 26.9828C0.886762 27.0073 0.760498 27.0043 0.639428 26.9741C0.518359 26.9439 0.405499 26.8872 0.30898 26.8081C0.212461 26.729 0.134685 26.6295 0.0812561 26.5167C0.0278272 26.4039 7.53515e-05 26.2807 0 26.156L0 2.53095C0.000117757 2.33597 0.0677634 2.14704 0.191436 1.9963C0.315108 1.84555 0.487173 1.74229 0.678375 1.70408L9.11588 0.0165765C9.22505 -0.00524413 9.33745 -0.00524413 9.44662 0.0165765L17.7188 1.67033L25.9909 0.0165765C26.1132 -0.00803432 26.2395 -0.00521026 26.3605 0.0248452C26.4816 0.0549007 26.5946 0.11144 26.6912 0.190389ZM16.875 3.22283L10.125 1.87283V23.7766L16.875 25.1266V3.22283ZM18.5625 25.1266L25.3125 23.7766V1.87283L18.5625 3.22283V25.1266ZM8.4375 23.7766V1.87283L1.6875 3.22283V25.1266L8.4375 23.7766Z" fill="#07518E"/>
</g>
<defs>
<clipPath id="clip0_44_524">
<rect width="27" height="27" fill="white"/>
</clipPath>
</defs>
</svg>
