<svg width="16" height="16" viewBox="0 0 16 16" fill="none" xmlns="http://www.w3.org/2000/svg">
<path d="M0 4C0 3.46957 0.210714 2.96086 0.585786 2.58579C0.960859 2.21071 1.46957 2 2 2H14C14.5304 2 15.0391 2.21071 15.4142 2.58579C15.7893 2.96086 16 3.46957 16 4V12C16 12.5304 15.7893 13.0391 15.4142 13.4142C15.0391 13.7893 14.5304 14 14 14H2C1.46957 14 0.960859 13.7893 0.585786 13.4142C0.210714 13.0391 0 12.5304 0 12V4ZM9 5.5C9 5.63261 9.05268 5.75979 9.14645 5.85355C9.24021 5.94732 9.36739 6 9.5 6H13.5C13.6326 6 13.7598 5.94732 13.8536 5.85355C13.9473 5.75979 14 5.63261 14 5.5C14 5.36739 13.9473 5.24021 13.8536 5.14645C13.7598 5.05268 13.6326 5 13.5 5H9.5C9.36739 5 9.24021 5.05268 9.14645 5.14645C9.05268 5.24021 9 5.36739 9 5.5ZM9 8C9 8.13261 9.05268 8.25979 9.14645 8.35355C9.24021 8.44732 9.36739 8.5 9.5 8.5H13.5C13.6326 8.5 13.7598 8.44732 13.8536 8.35355C13.9473 8.25979 14 8.13261 14 8C14 7.86739 13.9473 7.74021 13.8536 7.64645C13.7598 7.55268 13.6326 7.5 13.5 7.5H9.5C9.36739 7.5 9.24021 7.55268 9.14645 7.64645C9.05268 7.74021 9 7.86739 9 8ZM10 10.5C10 10.6326 10.0527 10.7598 10.1464 10.8536C10.2402 10.9473 10.3674 11 10.5 11H13.5C13.6326 11 13.7598 10.9473 13.8536 10.8536C13.9473 10.7598 14 10.6326 14 10.5C14 10.3674 13.9473 10.2402 13.8536 10.1464C13.7598 10.0527 13.6326 10 13.5 10H10.5C10.3674 10 10.2402 10.0527 10.1464 10.1464C10.0527 10.2402 10 10.3674 10 10.5ZM9 12.5C9 10.567 7.21 9 5 9C2.914 9 1.2 10.398 1.016 12.181C1.05834 12.411 1.17998 12.619 1.35976 12.7686C1.53954 12.9182 1.76609 13.0001 2 13H8.96C8.98667 12.8367 9 12.67 9 12.5ZM7 6C7 5.46957 6.78929 4.96086 6.41421 4.58579C6.03914 4.21071 5.53043 4 5 4C4.46957 4 3.96086 4.21071 3.58579 4.58579C3.21071 4.96086 3 5.46957 3 6C3 6.53043 3.21071 7.03914 3.58579 7.41421C3.96086 7.78929 4.46957 8 5 8C5.53043 8 6.03914 7.78929 6.41421 7.41421C6.78929 7.03914 7 6.53043 7 6Z" fill="#07518E"/>
</svg>
