<svg width="27" height="27" viewBox="0 0 27 27" fill="none" xmlns="http://www.w3.org/2000/svg">
<path fill-rule="evenodd" clip-rule="evenodd" d="M3.18163 0.860952C3.47689 0.566113 3.83144 0.337395 4.22177 0.189954C4.6121 0.0425134 5.02931 -0.020283 5.44575 0.00572631C5.86218 0.0317356 6.26834 0.145957 6.63729 0.34082C7.00625 0.535684 7.32958 0.80674 7.58587 1.13603L10.6148 5.02758C11.17 5.74143 11.3658 6.67128 11.1464 7.54882L10.2233 11.2446C10.176 11.4361 10.1787 11.6365 10.2313 11.8265C10.2839 12.0166 10.3846 12.1899 10.5237 12.3297L14.6698 16.4761C14.8097 16.6155 14.9833 16.7164 15.1737 16.769C15.3641 16.8216 15.5648 16.8242 15.7565 16.7765L19.4503 15.8534C19.8834 15.7457 20.3352 15.7376 20.7719 15.8297C21.2085 15.9218 21.6186 16.1116 21.9714 16.385L25.8626 19.4125C27.2615 20.501 27.3897 22.5683 26.1377 23.8188L24.3928 25.5637C23.1441 26.8125 21.2778 27.361 19.5381 26.7484C15.0843 25.1833 11.041 22.6337 7.70905 19.2893C4.36516 15.9576 1.81573 11.9145 0.250537 7.46107C-0.360319 5.72286 0.188101 3.85471 1.43681 2.60591L3.18163 0.860952Z" fill="#07518E"/>
</svg>
