<svg width="62" height="62" viewBox="0 0 62 62" fill="none" xmlns="http://www.w3.org/2000/svg">
<g filter="url(#filter0_d_83_2)">
<circle cx="30.7504" cy="27.4284" r="26.507" fill="#07518E"/>
</g>
<g clip-path="url(#clip0_83_2)">
<path d="M30.4018 47.2216C25.0598 47.2216 19.9367 45.0995 16.1594 41.3222C12.382 37.5448 10.26 32.4217 10.26 27.0798C10.26 21.7378 12.382 16.6147 16.1594 12.8373C19.9367 9.06003 25.0598 6.93795 30.4018 6.93795C35.7437 6.93795 40.8669 9.06003 44.6442 12.8373C48.4215 16.6147 50.5436 21.7378 50.5436 27.0798C50.5436 32.4217 48.4215 37.5448 44.6442 41.3222C40.8669 45.0995 35.7437 47.2216 30.4018 47.2216ZM30.4018 50.099C36.5069 50.099 42.3619 47.6737 46.6788 43.3568C50.9958 39.0399 53.421 33.1848 53.421 27.0798C53.421 20.9747 50.9958 15.1197 46.6788 10.8027C42.3619 6.48578 36.5069 4.06055 30.4018 4.06055C24.2967 4.06055 18.4417 6.48578 14.1247 10.8027C9.8078 15.1197 7.38257 20.9747 7.38257 27.0798C7.38257 33.1848 9.8078 39.0399 14.1247 43.3568C18.4417 47.6737 24.2967 50.099 30.4018 50.099Z" fill="white"/>
<path d="M19.7122 39.8351C20.0426 40.0258 20.4353 40.0775 20.8039 39.9788C21.1724 39.88 21.4867 39.6389 21.6775 39.3085C22.5616 37.7771 23.8333 36.5056 25.3648 35.6216C26.8963 34.7377 28.6335 34.2726 30.4017 34.273C34.128 34.273 37.3823 36.2959 39.126 39.3085C39.3182 39.6362 39.6321 39.8747 39.9994 39.9718C40.3667 40.0689 40.7575 40.0168 41.0865 39.8268C41.4155 39.6369 41.6561 39.3245 41.7556 38.9578C41.8551 38.5912 41.8056 38.2001 41.6179 37.8698C40.4812 35.901 38.8462 34.2662 36.8773 33.1297C34.9085 31.9933 32.6751 31.3952 30.4017 31.3956C28.1284 31.3952 25.895 31.9933 23.9261 33.1297C21.9573 34.2662 20.3223 35.901 19.1856 37.8698C18.9949 38.2002 18.9432 38.5929 19.0419 38.9615C19.1407 39.33 19.3818 39.6443 19.7122 39.8351ZM39.8281 15.7224C39.9972 15.6361 40.1817 15.584 40.371 15.5693C40.5603 15.5545 40.7506 15.5774 40.9311 15.6366C41.1115 15.6958 41.2784 15.7901 41.4222 15.9141C41.566 16.0381 41.6838 16.1893 41.7688 16.3591C41.8539 16.5288 41.9045 16.7137 41.9178 16.9031C41.9311 17.0926 41.9067 17.2827 41.8461 17.4627C41.7855 17.6426 41.6899 17.8088 41.5648 17.9516C41.4397 18.0944 41.2876 18.2111 41.1172 18.2948L38.2139 19.745C38.7203 20.5219 39.0339 21.5866 39.0339 22.7634C39.0339 25.1459 37.7449 27.0795 36.1565 27.0795C34.5682 27.0795 33.2791 25.1459 33.2791 22.7634C33.2791 22.0527 33.3942 21.3823 33.5957 20.7895C33.4618 20.6217 33.3671 20.4262 33.3183 20.2171C33.2695 20.0081 33.268 19.7908 33.3137 19.5811C33.3595 19.3714 33.4514 19.1745 33.5828 19.0047C33.7142 18.835 33.8817 18.6967 34.0733 18.5998L39.8281 15.7224ZM20.9754 15.7224C20.6347 15.555 20.2416 15.529 19.8818 15.6501C19.522 15.7712 19.2246 16.0297 19.0546 16.3691C18.8845 16.7085 18.8554 17.1013 18.9738 17.4621C19.0921 17.8228 19.3482 18.1221 19.6863 18.2948L22.5896 19.745C22.0342 20.6525 21.7497 21.6997 21.7695 22.7634C21.7695 25.1459 23.0586 27.0795 24.6469 27.0795C26.2353 27.0795 27.5243 25.1459 27.5243 22.7634C27.5243 22.0527 27.4092 21.3823 27.2078 20.7895C27.3417 20.6217 27.4364 20.4262 27.4852 20.2171C27.534 20.0081 27.5355 19.7908 27.4898 19.5811C27.444 19.3714 27.3521 19.1745 27.2207 19.0047C27.0893 18.835 26.9217 18.6967 26.7302 18.5998L20.9754 15.7224Z" fill="white"/>
</g>
<defs>
<filter id="filter0_d_83_2" x="0.243408" y="0.921387" width="61.0139" height="61.0142" filterUnits="userSpaceOnUse" color-interpolation-filters="sRGB">
<feFlood flood-opacity="0" result="BackgroundImageFix"/>
<feColorMatrix in="SourceAlpha" type="matrix" values="0 0 0 0 0 0 0 0 0 0 0 0 0 0 0 0 0 0 127 0" result="hardAlpha"/>
<feOffset dy="4"/>
<feGaussianBlur stdDeviation="2"/>
<feComposite in2="hardAlpha" operator="out"/>
<feColorMatrix type="matrix" values="0 0 0 0 0 0 0 0 0 0 0 0 0 0 0 0 0 0 0.25 0"/>
<feBlend mode="normal" in2="BackgroundImageFix" result="effect1_dropShadow_83_2"/>
<feBlend mode="normal" in="SourceGraphic" in2="effect1_dropShadow_83_2" result="shape"/>
</filter>
<clipPath id="clip0_83_2">
<rect width="46.0384" height="46.0384" fill="white" transform="translate(7.38257 4.06055)"/>
</clipPath>
</defs>
</svg>
