<svg width="62" height="62" viewBox="0 0 62 62" fill="none" xmlns="http://www.w3.org/2000/svg">
<g filter="url(#filter0_d_83_3)">
<circle cx="30.7516" cy="26.8839" r="26.507" fill="#07518E"/>
</g>
<g clip-path="url(#clip0_83_3)">
<path d="M30.7516 46.6766C25.4097 46.6766 20.2865 44.5546 16.5092 40.7772C12.7319 36.9999 10.6098 31.8768 10.6098 26.5348C10.6098 21.1929 12.7319 16.0697 16.5092 12.2924C20.2865 8.5151 25.4097 6.39303 30.7516 6.39303C36.0936 6.39303 41.2167 8.5151 44.994 12.2924C48.7714 16.0697 50.8934 21.1929 50.8934 26.5348C50.8934 31.8768 48.7714 36.9999 44.994 40.7772C41.2167 44.5546 36.0936 46.6766 30.7516 46.6766ZM30.7516 49.554C36.8567 49.554 42.7117 47.1288 47.0287 42.8119C51.3456 38.4949 53.7708 32.6399 53.7708 26.5348C53.7708 20.4298 51.3456 14.5747 47.0287 10.2578C42.7117 5.94086 36.8567 3.51563 30.7516 3.51562C24.6466 3.51563 18.7915 5.94086 14.4746 10.2578C10.1577 14.5747 7.73242 20.4298 7.73242 26.5348C7.73242 32.6399 10.1577 38.4949 14.4746 42.8119C18.7915 47.1288 24.6466 49.554 30.7516 49.554Z" fill="white"/>
<path d="M27.3881 36.4044C28.4552 35.9645 29.5975 35.7358 30.7518 35.7311C33.3875 35.7311 35.3757 36.9051 37.2259 38.1079C37.8359 38.5049 38.4459 37.9093 38.0373 37.3108C36.4145 34.9226 33.5543 31.415 30.7518 31.415C29.2267 31.415 27.6844 32.4538 26.3321 33.786C26.5738 34.3039 26.7963 34.8171 26.9996 35.3254C27.132 35.6592 27.2615 36.017 27.3881 36.3987V36.4044ZM24.997 36.1253C24.997 38.7725 23.0633 40.922 20.6808 40.922C18.2984 40.922 16.3647 38.7754 16.3647 36.1253C16.3647 34.0939 18.9026 29.5361 20.0881 27.5219C20.1483 27.418 20.2347 27.3316 20.3387 27.2716C20.4428 27.2116 20.5607 27.1801 20.6808 27.1801C20.8009 27.1801 20.9189 27.2116 21.023 27.2716C21.127 27.3316 21.2134 27.418 21.2736 27.5219C22.4591 29.5361 24.997 34.0939 24.997 36.1253ZM27.8744 22.2189C27.8744 24.6013 26.5853 26.535 24.997 26.535C23.4086 26.535 22.1195 24.6013 22.1195 22.2189C22.1195 19.8364 23.4086 17.9028 24.997 17.9028C26.5853 17.9028 27.8744 19.8364 27.8744 22.2189ZM39.384 22.2189C39.384 24.6013 38.0949 26.535 36.5066 26.535C34.9182 26.535 33.6292 24.6013 33.6292 22.2189C33.6292 19.8364 34.9182 17.9028 36.5066 17.9028C38.0949 17.9028 39.384 19.8364 39.384 22.2189ZM35.0679 13.5866C35.0679 13.2051 35.2194 12.8391 35.4892 12.5693C35.759 12.2995 36.125 12.1479 36.5066 12.1479C39.8501 12.1479 43.2684 13.8284 44.9863 17.2582C45.0726 17.4273 45.1247 17.6118 45.1394 17.8011C45.1541 17.9904 45.1313 18.1807 45.0721 18.3612C45.0129 18.5416 44.9186 18.7085 44.7946 18.8523C44.6706 18.9961 44.5194 19.1139 44.3496 19.199C44.1799 19.284 43.995 19.3346 43.8055 19.3479C43.6161 19.3612 43.426 19.3368 43.246 19.2762C43.0661 19.2156 42.8999 19.12 42.7571 18.9949C42.6143 18.8698 42.4976 18.7177 42.4139 18.5473C41.2514 16.2223 38.9178 15.0254 36.5066 15.0254C36.125 15.0254 35.759 14.8738 35.4892 14.604C35.2194 14.3342 35.0679 13.9682 35.0679 13.5866ZM27.8744 13.5866C27.8744 13.2051 27.7228 12.8391 27.453 12.5693C27.1832 12.2995 26.8172 12.1479 26.4357 12.1479C23.0921 12.1479 19.6738 13.8284 17.9559 17.2582C17.8696 17.4273 17.8175 17.6118 17.8028 17.8011C17.7881 17.9904 17.8109 18.1807 17.8701 18.3612C17.9293 18.5416 18.0236 18.7085 18.1476 18.8523C18.2716 18.9961 18.4228 19.1139 18.5926 19.199C18.7623 19.284 18.9473 19.3346 19.1367 19.3479C19.3261 19.3612 19.5162 19.3368 19.6962 19.2762C19.8761 19.2156 20.0423 19.12 20.1851 18.9949C20.3279 18.8698 20.4446 18.7177 20.5283 18.5473C21.6908 16.2223 24.0244 15.0254 26.4357 15.0254C26.8172 15.0254 27.1832 14.8738 27.453 14.604C27.7228 14.3342 27.8744 13.9682 27.8744 13.5866Z" fill="white"/>
</g>
<defs>
<filter id="filter0_d_83_3" x="0.244629" y="0.376953" width="61.0139" height="61.0142" filterUnits="userSpaceOnUse" color-interpolation-filters="sRGB">
<feFlood flood-opacity="0" result="BackgroundImageFix"/>
<feColorMatrix in="SourceAlpha" type="matrix" values="0 0 0 0 0 0 0 0 0 0 0 0 0 0 0 0 0 0 127 0" result="hardAlpha"/>
<feOffset dy="4"/>
<feGaussianBlur stdDeviation="2"/>
<feComposite in2="hardAlpha" operator="out"/>
<feColorMatrix type="matrix" values="0 0 0 0 0 0 0 0 0 0 0 0 0 0 0 0 0 0 0.25 0"/>
<feBlend mode="normal" in2="BackgroundImageFix" result="effect1_dropShadow_83_3"/>
<feBlend mode="normal" in="SourceGraphic" in2="effect1_dropShadow_83_3" result="shape"/>
</filter>
<clipPath id="clip0_83_3">
<rect width="46.0384" height="46.0384" fill="white" transform="translate(7.73242 3.51562)"/>
</clipPath>
</defs>
</svg>
